# xmcd CD database file
#
# Track frame offsets:
#	188
#	16463
#	28913
#	48188
#	62813
#	78188
#	90563
#	101738
#	116888
#	133763
#	146888
#	164363
#	178238
#
# Disc length: 2613 seconds
#
# Revision: 2
# Processed by: cddbd v1.4PL0 Copyright (c) Steve Scherf et al.
# Submitted via: CDex 1.50Beta7
#
DISCID=b80a330d
DTITLE=Jesús Auñón - 13 Cuerdas
DYEAR=1992
DGENRE=New Age
TTITLE0=Dulcimer
TTITLE1=Trabalenguas
TTITLE2=Llueve en la cuesta Alhacaba
TTITLE3=Zig-zag
TTITLE4=Natural Blues
TTITLE5=Intervalos
TTITLE6=The Three Seas Captain
TTITLE7=Al escondite
TTITLE8=Equipaje de Arena
TTITLE9=Anillos concéntricos
TTITLE10=En dos palabras
TTITLE11=Paraísos perdidos
TTITLE12=Reflejos
EXTD=Takako Nishizaki\nCapella Istropolitana\nStephen Gunzenhauser\n\nRecorded at the Concert Hall of the Slovak Philharmonic\nfrom 12th to 15th June (Violin Concertos) and at the\nMoyzes Hall in Bratislava from 4th to 8th November, 1989\n(Adagio, Rondo)
EXTD=\n\nProducers:\tGünter Appenheimer (Violin Concertos),\n\t\tMartin Sauer (Adagio, Rondo]\nMusic Notes:\tKeith Anderson\n YEAR: 1992
EXTT0=Raphael
EXTT1=Gell Campanatti
EXTT2=David Darling
EXTT3=Priscilla Ermel
EXTT4=Tom and Susan Wasinger
EXTT5=Harry
EXTT6=Resonate
EXTT7=Habitants
EXTT8=Aghast view
EXTT9=Still Patient
EXTT10=Second Voice
EXTT11=CPC
EXTT12=Suicide Youth
PLAYORDER=
